<?xml version="1.0" encoding="UTF-8" standalone="no"?>
<!-- Created with Inkscape (http://www.inkscape.org/) -->

<svg
   width="89.849091mm"
   height="60.429161mm"
   viewBox="0 0 89.849091 60.429161"
   version="1.1"
   id="svg5"
   inkscape:version="1.2.2 (b0a84865, 2022-12-01)"
   sodipodi:docname="visibility-temporal.svg"
   xml:space="preserve"
   xmlns:inkscape="http://www.inkscape.org/namespaces/inkscape"
   xmlns:sodipodi="http://sodipodi.sourceforge.net/DTD/sodipodi-0.dtd"
   xmlns:xlink="http://www.w3.org/1999/xlink"
   xmlns="http://www.w3.org/2000/svg"
   xmlns:svg="http://www.w3.org/2000/svg"><sodipodi:namedview
     id="namedview7"
     pagecolor="#ffffff"
     bordercolor="#eeeeee"
     borderopacity="1"
     inkscape:showpageshadow="0"
     inkscape:pageopacity="0"
     inkscape:pagecheckerboard="0"
     inkscape:deskcolor="#c6c6c6"
     inkscape:document-units="mm"
     showgrid="false"
     inkscape:zoom="1.3263039"
     inkscape:cx="178.3151"
     inkscape:cy="89.723029"
     inkscape:window-width="1728"
     inkscape:window-height="993"
     inkscape:window-x="0"
     inkscape:window-y="33"
     inkscape:window-maximized="1"
     inkscape:current-layer="layer1" /><defs
     id="defs2"><g
       id="g253"><g
         id="glyph-0-0" /><g
         id="glyph-0-1"><path
           d="m 6.5625,-2.296875 c 0.171875,0 0.359375,0 0.359375,-0.203125 0,-0.1875 -0.1875,-0.1875 -0.359375,-0.1875 H 1.171875 c -0.171875,0 -0.34375,0 -0.34375,0.1875 0,0.203125 0.171875,0.203125 0.34375,0.203125 z m 0,0"
           id="path146" /></g><g
         id="glyph-1-0" /><g
         id="glyph-1-1"><path
           d="m 1.3125,-3.265625 v -0.25 c 0,-2.515625 1.234375,-2.875 1.75,-2.875 0.234375,0 0.65625,0.0625 0.875,0.40625 -0.15625,0 -0.546875,0 -0.546875,0.4375 0,0.3125 0.234375,0.46875 0.453125,0.46875 0.15625,0 0.46875,-0.09375 0.46875,-0.484375 0,-0.59375 -0.4375,-1.078125 -1.265625,-1.078125 -1.28125,0 -2.625,1.28125 -2.625,3.484375 0,2.671875 1.15625,3.375 2.078125,3.375 1.109375,0 2.0625,-0.9375 2.0625,-2.25 0,-1.265625 -0.890625,-2.21875 -2,-2.21875 -0.671875,0 -1.046875,0.5 -1.25,0.984375 z M 2.5,-0.0625 c -0.625,0 -0.921875,-0.59375 -0.984375,-0.75 -0.1875,-0.46875 -0.1875,-1.265625 -0.1875,-1.4375 0,-0.78125 0.328125,-1.78125 1.21875,-1.78125 0.171875,0 0.625,0 0.9375,0.625 0.171875,0.359375 0.171875,0.875 0.171875,1.359375 0,0.484375 0,0.984375 -0.171875,1.34375 C 3.1875,-0.109375 2.734375,-0.0625 2.5,-0.0625 Z m 0,0"
           id="path150" /></g><g
         id="glyph-1-2"><path
           d="m 2.9375,-1.640625 v 0.859375 c 0,0.359375 -0.03125,0.46875 -0.765625,0.46875 H 1.96875 V 0 C 2.375,-0.03125 2.890625,-0.03125 3.3125,-0.03125 c 0.421875,0 0.9375,0 1.359375,0.03125 v -0.3125 h -0.21875 c -0.734375,0 -0.75,-0.109375 -0.75,-0.46875 V -1.640625 H 4.6875 v -0.3125 H 3.703125 v -4.53125 c 0,-0.203125 0,-0.265625 -0.171875,-0.265625 -0.078125,0 -0.109375,0 -0.1875,0.125 l -3.0625,4.671875 v 0.3125 z m 0.046875,-0.3125 H 0.5625 l 2.421875,-3.71875 z m 0,0"
           id="path153" /></g><g
         id="glyph-1-3"><path
           d="m 1.265625,-0.765625 1.0625,-1.03125 c 1.546875,-1.375 2.140625,-1.90625 2.140625,-2.90625 0,-1.140625 -0.890625,-1.9375 -2.109375,-1.9375 -1.125,0 -1.859375,0.921875 -1.859375,1.8125 0,0.546875 0.5,0.546875 0.53125,0.546875 0.171875,0 0.515625,-0.109375 0.515625,-0.53125 0,-0.25 -0.1875,-0.515625 -0.53125,-0.515625 -0.078125,0 -0.09375,0 -0.125,0.015625 0.21875,-0.65625 0.765625,-1.015625 1.34375,-1.015625 0.90625,0 1.328125,0.8125 1.328125,1.625 C 3.5625,-3.90625 3.078125,-3.125 2.515625,-2.5 l -1.90625,2.125 C 0.5,-0.265625 0.5,-0.234375 0.5,0 H 4.203125 L 4.46875,-1.734375 H 4.234375 C 4.171875,-1.4375 4.109375,-1 4,-0.84375 3.9375,-0.765625 3.28125,-0.765625 3.0625,-0.765625 Z m 0,0"
           id="path156" /></g><g
         id="glyph-1-4"><path
           d="m 4.578125,-3.1875 c 0,-0.796875 -0.046875,-1.59375 -0.390625,-2.328125 -0.453125,-0.96875 -1.28125,-1.125 -1.6875,-1.125 -0.609375,0 -1.328125,0.265625 -1.75,1.1875 -0.3125,0.6875 -0.359375,1.46875 -0.359375,2.265625 0,0.75 0.03125,1.640625 0.453125,2.40625 0.421875,0.796875 1.15625,1 1.640625,1 0.53125,0 1.296875,-0.203125 1.734375,-1.15625 0.3125,-0.6875 0.359375,-1.46875 0.359375,-2.25 z M 2.484375,0 C 2.09375,0 1.5,-0.25 1.328125,-1.203125 1.21875,-1.796875 1.21875,-2.71875 1.21875,-3.3125 c 0,-0.640625 0,-1.296875 0.078125,-1.828125 0.1875,-1.1875 0.9375,-1.28125 1.1875,-1.28125 0.328125,0 0.984375,0.1875 1.171875,1.171875 0.109375,0.5625 0.109375,1.3125 0.109375,1.9375 0,0.75 0,1.421875 -0.109375,2.0625 C 3.5,-0.296875 2.9375,0 2.484375,0 Z m 0,0"
           id="path159" /></g><g
         id="glyph-1-5"><path
           d="m 4.46875,-2 c 0,-1.1875 -0.8125,-2.1875 -1.890625,-2.1875 -0.46875,0 -0.90625,0.15625 -1.265625,0.515625 V -5.625 c 0.203125,0.0625 0.53125,0.125 0.84375,0.125 1.234375,0 1.9375,-0.90625 1.9375,-1.03125 0,-0.0625 -0.03125,-0.109375 -0.109375,-0.109375 0,0 -0.03125,0 -0.078125,0.03125 C 3.703125,-6.515625 3.21875,-6.3125 2.546875,-6.3125 2.15625,-6.3125 1.6875,-6.390625 1.21875,-6.59375 1.140625,-6.625 1.125,-6.625 1.109375,-6.625 1,-6.625 1,-6.546875 1,-6.390625 V -3.4375 c 0,0.171875 0,0.25 0.140625,0.25 0.078125,0 0.09375,-0.015625 0.140625,-0.078125 C 1.390625,-3.421875 1.75,-3.96875 2.5625,-3.96875 c 0.515625,0 0.765625,0.453125 0.84375,0.640625 0.15625,0.375 0.1875,0.75 0.1875,1.25 0,0.359375 0,0.953125 -0.25,1.375 C 3.109375,-0.3125 2.734375,-0.0625 2.28125,-0.0625 c -0.71875,0 -1.296875,-0.53125 -1.46875,-1.109375 0.03125,0 0.0625,0.015625 0.171875,0.015625 0.328125,0 0.5,-0.25 0.5,-0.484375 0,-0.25 -0.171875,-0.5 -0.5,-0.5 C 0.84375,-2.140625 0.5,-2.0625 0.5,-1.609375 0.5,-0.75 1.1875,0.21875 2.296875,0.21875 3.453125,0.21875 4.46875,-0.734375 4.46875,-2 Z m 0,0"
           id="path162" /></g><g
         id="glyph-1-6"><path
           d="m 2.9375,-6.375 c 0,-0.25 0,-0.265625 -0.234375,-0.265625 C 2.078125,-6 1.203125,-6 0.890625,-6 v 0.3125 c 0.203125,0 0.78125,0 1.296875,-0.265625 v 5.171875 c 0,0.359375 -0.03125,0.46875 -0.921875,0.46875 h -0.3125 V 0 c 0.34375,-0.03125 1.203125,-0.03125 1.609375,-0.03125 0.390625,0 1.265625,0 1.609375,0.03125 v -0.3125 h -0.3125 c -0.90625,0 -0.921875,-0.109375 -0.921875,-0.46875 z m 0,0"
           id="path165" /></g><g
         id="glyph-1-7"><path
           d="m 6.640625,-6.75 h -6.09375 l -0.1875,2.25 h 0.25 C 0.75,-6.109375 0.890625,-6.4375 2.40625,-6.4375 c 0.171875,0 0.4375,0 0.53125,0.015625 0.21875,0.046875 0.21875,0.15625 0.21875,0.375 v 5.265625 c 0,0.328125 0,0.46875 -1.046875,0.46875 H 1.703125 V 0 C 2.109375,-0.03125 3.125,-0.03125 3.59375,-0.03125 c 0.453125,0 1.484375,0 1.890625,0.03125 v -0.3125 h -0.40625 c -1.046875,0 -1.046875,-0.140625 -1.046875,-0.46875 v -5.265625 c 0,-0.1875 0,-0.328125 0.1875,-0.375 0.109375,-0.015625 0.375,-0.015625 0.5625,-0.015625 1.515625,0 1.65625,0.328125 1.796875,1.9375 h 0.25 z m 0,0"
           id="path168" /></g><g
         id="glyph-1-8"><path
           d="M 1.765625,-4.40625 0.375,-4.296875 v 0.3125 c 0.640625,0 0.734375,0.0625 0.734375,0.546875 V -0.75 c 0,0.4375 -0.109375,0.4375 -0.78125,0.4375 V 0 C 0.640625,-0.015625 1.1875,-0.03125 1.421875,-0.03125 1.78125,-0.03125 2.125,-0.015625 2.46875,0 v -0.3125 c -0.671875,0 -0.703125,-0.046875 -0.703125,-0.4375 z m 0.03125,-1.734375 c 0,-0.3125 -0.234375,-0.53125 -0.515625,-0.53125 -0.3125,0 -0.53125,0.265625 -0.53125,0.53125 0,0.265625 0.21875,0.53125 0.53125,0.53125 0.28125,0 0.515625,-0.21875 0.515625,-0.53125 z m 0,0"
           id="path171" /></g><g
         id="glyph-1-9"><path
           d="M 1.09375,-3.421875 V -0.75 c 0,0.4375 -0.109375,0.4375 -0.78125,0.4375 V 0 c 0.359375,-0.015625 0.859375,-0.03125 1.140625,-0.03125 0.25,0 0.765625,0.015625 1.109375,0.03125 v -0.3125 c -0.671875,0 -0.78125,0 -0.78125,-0.4375 V -2.59375 C 1.78125,-3.625 2.5,-4.1875 3.125,-4.1875 c 0.640625,0 0.75,0.53125 0.75,1.109375 V -0.75 c 0,0.4375 -0.109375,0.4375 -0.78125,0.4375 V 0 c 0.34375,-0.015625 0.859375,-0.03125 1.125,-0.03125 0.25,0 0.78125,0.015625 1.109375,0.03125 v -0.3125 c -0.65625,0 -0.765625,0 -0.765625,-0.4375 v -1.84375 c 0,-1.03125 0.703125,-1.59375 1.34375,-1.59375 0.625,0 0.734375,0.53125 0.734375,1.109375 V -0.75 c 0,0.4375 -0.109375,0.4375 -0.78125,0.4375 V 0 c 0.34375,-0.015625 0.859375,-0.03125 1.125,-0.03125 0.265625,0 0.78125,0.015625 1.125,0.03125 v -0.3125 c -0.515625,0 -0.765625,0 -0.78125,-0.296875 v -1.90625 c 0,-0.859375 0,-1.15625 -0.3125,-1.515625 -0.140625,-0.171875 -0.46875,-0.375 -1.046875,-0.375 -0.828125,0 -1.28125,0.59375 -1.4375,0.984375 C 4.390625,-4.296875 3.65625,-4.40625 3.203125,-4.40625 2.46875,-4.40625 2,-3.984375 1.71875,-3.359375 V -4.40625 L 0.3125,-4.296875 v 0.3125 c 0.703125,0 0.78125,0.0625 0.78125,0.5625 z m 0,0"
           id="path174" /></g><g
         id="glyph-1-10"><path
           d="M 1.109375,-2.515625 C 1.171875,-4 2.015625,-4.25 2.359375,-4.25 c 1.015625,0 1.125,1.34375 1.125,1.734375 z m 0,0.21875 h 2.78125 c 0.21875,0 0.25,0 0.25,-0.21875 0,-0.984375 -0.546875,-1.953125 -1.78125,-1.953125 -1.15625,0 -2.078125,1.03125 -2.078125,2.28125 0,1.328125 1.046875,2.296875 2.1875,2.296875 C 3.6875,0.109375 4.140625,-1 4.140625,-1.1875 4.140625,-1.28125 4.0625,-1.3125 4,-1.3125 c -0.078125,0 -0.109375,0.0625 -0.125,0.140625 -0.34375,1.03125 -1.25,1.03125 -1.34375,1.03125 -0.5,0 -0.890625,-0.296875 -1.125,-0.671875 -0.296875,-0.46875 -0.296875,-1.125 -0.296875,-1.484375 z m 0,0"
           id="path177" /></g><g
         id="glyph-1-11"><path
           d="m 3.78125,-0.546875 v 0.65625 L 5.25,0 v -0.3125 c -0.6875,0 -0.78125,-0.0625 -0.78125,-0.5625 V -6.921875 L 3.046875,-6.8125 V -6.5 c 0.6875,0 0.765625,0.0625 0.765625,0.5625 v 2.15625 c -0.28125,-0.359375 -0.71875,-0.625 -1.25,-0.625 -1.171875,0 -2.21875,0.984375 -2.21875,2.265625 0,1.265625 0.96875,2.25 2.109375,2.25 0.640625,0 1.078125,-0.34375 1.328125,-0.65625 z m 0,-2.671875 v 2.046875 c 0,0.171875 0,0.1875 -0.109375,0.359375 C 3.375,-0.328125 2.9375,-0.109375 2.5,-0.109375 2.046875,-0.109375 1.6875,-0.375 1.453125,-0.75 1.203125,-1.15625 1.171875,-1.71875 1.171875,-2.140625 1.171875,-2.5 1.1875,-3.09375 1.46875,-3.546875 1.6875,-3.859375 2.0625,-4.1875 2.609375,-4.1875 c 0.34375,0 0.765625,0.15625 1.0625,0.59375 0.109375,0.171875 0.109375,0.1875 0.109375,0.375 z m 0,0"
           id="path180" /></g><g
         id="glyph-1-12"><path
           d="M 1.765625,-6.921875 0.328125,-6.8125 V -6.5 c 0.703125,0 0.78125,0.0625 0.78125,0.5625 V -0.75 c 0,0.4375 -0.109375,0.4375 -0.78125,0.4375 V 0 C 0.65625,-0.015625 1.1875,-0.03125 1.4375,-0.03125 c 0.25,0 0.734375,0.015625 1.109375,0.03125 v -0.3125 c -0.671875,0 -0.78125,0 -0.78125,-0.4375 z m 0,0"
           id="path183" /></g><g
         id="glyph-1-13"><path
           d="m 3.3125,-0.75 c 0.046875,0.390625 0.3125,0.8125 0.78125,0.8125 0.21875,0 0.828125,-0.140625 0.828125,-0.953125 v -0.5625 h -0.25 v 0.5625 c 0,0.578125 -0.25,0.640625 -0.359375,0.640625 -0.328125,0 -0.375,-0.453125 -0.375,-0.5 v -1.984375 c 0,-0.421875 0,-0.8125 -0.359375,-1.1875 C 3.1875,-4.3125 2.6875,-4.46875 2.21875,-4.46875 c -0.828125,0 -1.515625,0.46875 -1.515625,1.125 0,0.296875 0.203125,0.46875 0.46875,0.46875 0.28125,0 0.453125,-0.203125 0.453125,-0.453125 0,-0.125 -0.046875,-0.453125 -0.515625,-0.453125 C 1.390625,-4.140625 1.875,-4.25 2.1875,-4.25 c 0.5,0 1.0625,0.390625 1.0625,1.28125 v 0.359375 c -0.515625,0.03125 -1.203125,0.0625 -1.828125,0.359375 -0.75,0.34375 -1,0.859375 -1,1.296875 0,0.8125 0.96875,1.0625 1.59375,1.0625 0.65625,0 1.109375,-0.40625 1.296875,-0.859375 z M 3.25,-2.390625 v 1 c 0,0.9375 -0.71875,1.28125 -1.171875,1.28125 -0.484375,0 -0.890625,-0.34375 -0.890625,-0.84375 0,-0.546875 0.421875,-1.375 2.0625,-1.4375 z m 0,0"
           id="path186" /></g><g
         id="glyph-1-14"><path
           d="m 4.140625,-3.34375 c 0.25,-0.640625 0.765625,-0.640625 0.921875,-0.640625 v -0.3125 c -0.234375,0.015625 -0.515625,0.03125 -0.75,0.03125 -0.171875,0 -0.640625,-0.015625 -0.859375,-0.03125 v 0.3125 c 0.3125,0 0.46875,0.171875 0.46875,0.421875 0,0.109375 -0.015625,0.125 -0.0625,0.25 L 2.84375,-0.875 1.75,-3.546875 C 1.703125,-3.65625 1.6875,-3.6875 1.6875,-3.734375 c 0,-0.25 0.359375,-0.25 0.5625,-0.25 v -0.3125 c -0.265625,0.015625 -0.921875,0.03125 -1.09375,0.03125 -0.265625,0 -0.671875,-0.015625 -0.96875,-0.03125 v 0.3125 c 0.484375,0 0.671875,0 0.8125,0.34375 L 2.5,0 C 2.4375,0.125 2.296875,0.453125 2.25,0.59375 2.03125,1.140625 1.75,1.828125 1.109375,1.828125 c -0.046875,0 -0.28125,0 -0.46875,-0.1875 0.3125,-0.03125 0.390625,-0.25 0.390625,-0.421875 0,-0.25 -0.1875,-0.40625 -0.421875,-0.40625 -0.203125,0 -0.421875,0.125 -0.421875,0.421875 0,0.453125 0.421875,0.8125 0.921875,0.8125 0.625,0 1.03125,-0.578125 1.265625,-1.140625 z m 0,0"
           id="path189" /></g><g
         id="glyph-1-15"><path
           d="M 2.546875,2.5 V 2.09375 h -0.96875 v -9.171875 h 0.96875 v -0.40625 h -1.375 V 2.5 Z m 0,0"
           id="path192" /></g><g
         id="glyph-1-16"><path
           d="M 3.890625,-0.78125 V 0.109375 L 5.328125,0 V -0.3125 C 4.640625,-0.3125 4.5625,-0.375 4.5625,-0.875 v -3.53125 l -1.46875,0.109375 v 0.3125 c 0.6875,0 0.78125,0.0625 0.78125,0.5625 v 1.765625 c 0,0.875 -0.484375,1.546875 -1.21875,1.546875 -0.828125,0 -0.875,-0.46875 -0.875,-0.984375 v -3.3125 L 0.3125,-4.296875 v 0.3125 c 0.78125,0 0.78125,0.03125 0.78125,0.90625 v 1.5 c 0,0.78125 0,1.6875 1.515625,1.6875 0.5625,0 1,-0.28125 1.28125,-0.890625 z m 0,0"
           id="path195" /></g><g
         id="glyph-1-17"><path
           d="M 1.09375,-3.421875 V -0.75 c 0,0.4375 -0.109375,0.4375 -0.78125,0.4375 V 0 c 0.359375,-0.015625 0.859375,-0.03125 1.140625,-0.03125 0.25,0 0.765625,0.015625 1.109375,0.03125 v -0.3125 c -0.671875,0 -0.78125,0 -0.78125,-0.4375 V -2.59375 C 1.78125,-3.625 2.5,-4.1875 3.125,-4.1875 c 0.640625,0 0.75,0.53125 0.75,1.109375 V -0.75 c 0,0.4375 -0.109375,0.4375 -0.78125,0.4375 V 0 c 0.34375,-0.015625 0.859375,-0.03125 1.125,-0.03125 0.25,0 0.78125,0.015625 1.109375,0.03125 v -0.3125 c -0.515625,0 -0.765625,0 -0.765625,-0.296875 v -1.90625 c 0,-0.859375 0,-1.15625 -0.3125,-1.515625 -0.140625,-0.171875 -0.46875,-0.375 -1.046875,-0.375 C 2.46875,-4.40625 2,-3.984375 1.71875,-3.359375 V -4.40625 L 0.3125,-4.296875 v 0.3125 c 0.703125,0 0.78125,0.0625 0.78125,0.5625 z m 0,0"
           id="path198" /></g><g
         id="glyph-1-18"><path
           d="m 1.71875,-3.984375 h 1.4375 v -0.3125 H 1.71875 V -6.125 h -0.25 c 0,0.8125 -0.296875,1.875 -1.28125,1.921875 v 0.21875 h 0.84375 v 2.75 c 0,1.21875 0.9375,1.34375 1.296875,1.34375 0.703125,0 0.984375,-0.703125 0.984375,-1.34375 v -0.5625 h -0.25 V -1.25 c 0,0.734375 -0.296875,1.109375 -0.671875,1.109375 -0.671875,0 -0.671875,-0.90625 -0.671875,-1.078125 z m 0,0"
           id="path201" /></g><g
         id="glyph-1-19"><path
           d="m 2.078125,-1.9375 c 0.21875,0.046875 1.03125,0.203125 1.03125,0.921875 0,0.5 -0.34375,0.90625 -1.125,0.90625 -0.84375,0 -1.203125,-0.5625 -1.390625,-1.421875 C 0.5625,-1.65625 0.5625,-1.6875 0.453125,-1.6875 c -0.125,0 -0.125,0.0625 -0.125,0.234375 V -0.125 c 0,0.171875 0,0.234375 0.109375,0.234375 0.046875,0 0.0625,-0.015625 0.25,-0.203125 0.015625,-0.015625 0.015625,-0.03125 0.203125,-0.21875 0.4375,0.40625 0.890625,0.421875 1.09375,0.421875 1.140625,0 1.609375,-0.671875 1.609375,-1.390625 0,-0.515625 -0.296875,-0.828125 -0.421875,-0.9375 C 2.84375,-2.546875 2.453125,-2.625 2.03125,-2.703125 1.46875,-2.8125 0.8125,-2.9375 0.8125,-3.515625 c 0,-0.359375 0.25,-0.765625 1.109375,-0.765625 1.09375,0 1.15625,0.90625 1.171875,1.203125 0,0.09375 0.09375,0.09375 0.109375,0.09375 0.140625,0 0.140625,-0.046875 0.140625,-0.234375 v -1.015625 c 0,-0.15625 0,-0.234375 -0.109375,-0.234375 -0.046875,0 -0.078125,0 -0.203125,0.125 -0.03125,0.03125 -0.125,0.125 -0.171875,0.15625 -0.375,-0.28125 -0.78125,-0.28125 -0.9375,-0.28125 -1.21875,0 -1.59375,0.671875 -1.59375,1.234375 0,0.34375 0.15625,0.625 0.421875,0.84375 0.328125,0.25 0.609375,0.3125 1.328125,0.453125 z m 0,0"
           id="path204" /></g><g
         id="glyph-1-20"><path
           d="M 4.6875,-2.140625 C 4.6875,-3.40625 3.703125,-4.46875 2.5,-4.46875 c -1.25,0 -2.21875,1.09375 -2.21875,2.328125 0,1.296875 1.03125,2.25 2.203125,2.25 1.203125,0 2.203125,-0.984375 2.203125,-2.25 z m -2.1875,2 c -0.4375,0 -0.875,-0.203125 -1.140625,-0.671875 -0.25,-0.4375 -0.25,-1.046875 -0.25,-1.40625 0,-0.390625 0,-0.921875 0.234375,-1.359375 C 1.609375,-4.03125 2.078125,-4.25 2.484375,-4.25 c 0.4375,0 0.859375,0.21875 1.125,0.65625 0.265625,0.421875 0.265625,1 0.265625,1.375 0,0.359375 0,0.90625 -0.21875,1.34375 C 3.421875,-0.421875 2.984375,-0.140625 2.5,-0.140625 Z m 0,0"
           id="path207" /></g><g
         id="glyph-1-21"><path
           d="m 1.75,-4.296875 v -1.15625 c 0,-0.875 0.46875,-1.359375 0.90625,-1.359375 0.03125,0 0.1875,0 0.328125,0.078125 C 2.875,-6.703125 2.6875,-6.5625 2.6875,-6.3125 c 0,0.21875 0.15625,0.421875 0.4375,0.421875 0.28125,0 0.4375,-0.203125 0.4375,-0.4375 0,-0.375 -0.375,-0.703125 -0.90625,-0.703125 -0.6875,0 -1.546875,0.53125 -1.546875,1.59375 v 1.140625 h -0.78125 v 0.3125 h 0.78125 V -0.75 C 1.109375,-0.3125 1,-0.3125 0.34375,-0.3125 V 0 c 0.390625,-0.015625 0.859375,-0.03125 1.125,-0.03125 0.40625,0 0.875,0 1.265625,0.03125 V -0.3125 H 2.53125 c -0.734375,0 -0.75,-0.109375 -0.75,-0.46875 v -3.203125 h 1.125 v -0.3125 z m 0,0"
           id="path210" /></g><g
         id="glyph-1-22"><path
           d="M 1.578125,-7.484375 H 0.21875 v 0.40625 H 1.1875 V 2.09375 H 0.21875 V 2.5 h 1.359375 z m 0,0"
           id="path213" /></g><g
         id="glyph-1-23"><path
           d="M 6.109375,-6.03125 C 6.109375,-6.390625 6.125,-6.5 6.890625,-6.5 h 0.25 v -0.3125 c -0.359375,0.03125 -1.09375,0.03125 -1.46875,0.03125 -0.375,0 -1.125,0 -1.46875,-0.03125 V -6.5 H 4.4375 c 0.765625,0 0.78125,0.109375 0.78125,0.46875 v 2.328125 H 2.25 V -6.03125 C 2.25,-6.390625 2.265625,-6.5 3.03125,-6.5 h 0.234375 v -0.3125 c -0.34375,0.03125 -1.078125,0.03125 -1.46875,0.03125 -0.375,0 -1.125,0 -1.46875,-0.03125 V -6.5 H 0.5625 c 0.765625,0 0.796875,0.109375 0.796875,0.46875 v 5.25 c 0,0.359375 -0.03125,0.46875 -0.796875,0.46875 H 0.328125 V 0 c 0.34375,-0.03125 1.09375,-0.03125 1.46875,-0.03125 0.375,0 1.125,0 1.46875,0.03125 V -0.3125 H 3.03125 C 2.265625,-0.3125 2.25,-0.421875 2.25,-0.78125 v -2.609375 h 2.96875 v 2.609375 c 0,0.359375 -0.015625,0.46875 -0.78125,0.46875 H 4.203125 V 0 c 0.34375,-0.03125 1.078125,-0.03125 1.453125,-0.03125 0.390625,0 1.125,0 1.484375,0.03125 v -0.3125 h -0.25 c -0.765625,0 -0.78125,-0.109375 -0.78125,-0.46875 z m 0,0"
           id="path216" /></g><g
         id="glyph-1-24"><path
           d="m 7.1875,-3.375 c 0,-2.03125 -1.5,-3.65625 -3.3125,-3.65625 -1.796875,0 -3.3125,1.59375 -3.3125,3.65625 0,2.046875 1.53125,3.59375 3.3125,3.59375 1.8125,0 3.3125,-1.578125 3.3125,-3.59375 z M 3.875,-0.046875 c -0.953125,0 -2.296875,-0.875 -2.296875,-3.46875 0,-2.578125 1.46875,-3.265625 2.296875,-3.265625 0.859375,0 2.28125,0.703125 2.28125,3.265625 0,2.640625 -1.359375,3.46875 -2.28125,3.46875 z m 0,0"
           id="path219" /></g><g
         id="glyph-1-25"><path
           d="M 2.40625,-6.59375 C 2.3125,-6.8125 2.28125,-6.8125 2.046875,-6.8125 H 0.375 V -6.5 h 0.234375 c 0.765625,0 0.78125,0.109375 0.78125,0.46875 v 4.984375 c 0,0.265625 0,0.734375 -1.015625,0.734375 V 0 c 0.34375,-0.015625 0.828125,-0.03125 1.15625,-0.03125 0.328125,0 0.828125,0.015625 1.171875,0.03125 v -0.3125 c -1.03125,0 -1.03125,-0.46875 -1.03125,-0.734375 v -5.375 H 1.6875 L 4.09375,-0.21875 C 4.140625,-0.09375 4.1875,0 4.28125,0 4.390625,0 4.421875,-0.078125 4.46875,-0.1875 L 6.921875,-6.5 v 5.71875 c 0,0.359375 -0.015625,0.46875 -0.78125,0.46875 H 5.90625 V 0 c 0.359375,-0.03125 1.046875,-0.03125 1.4375,-0.03125 0.375,0 1.046875,0 1.421875,0.03125 v -0.3125 h -0.25 c -0.765625,0 -0.78125,-0.109375 -0.78125,-0.46875 v -5.25 C 7.734375,-6.390625 7.75,-6.5 8.515625,-6.5 h 0.25 v -0.3125 h -1.6875 C 6.8125,-6.8125 6.8125,-6.796875 6.75,-6.625 L 4.5625,-1 Z m 0,0"
           id="path222" /></g><g
         id="glyph-1-26"><path
           d="M 1.671875,-3.3125 V -4.40625 L 0.28125,-4.296875 v 0.3125 c 0.703125,0 0.78125,0.0625 0.78125,0.5625 V -0.75 c 0,0.4375 -0.109375,0.4375 -0.78125,0.4375 V 0 c 0.390625,-0.015625 0.859375,-0.03125 1.140625,-0.03125 0.390625,0 0.859375,0 1.265625,0.03125 V -0.3125 H 2.46875 c -0.734375,0 -0.75,-0.109375 -0.75,-0.46875 V -2.3125 c 0,-0.984375 0.421875,-1.875 1.171875,-1.875 0.0625,0 0.09375,0 0.109375,0.015625 -0.03125,0 -0.234375,0.125 -0.234375,0.390625 0,0.265625 0.21875,0.421875 0.4375,0.421875 0.171875,0 0.421875,-0.125 0.421875,-0.4375 0,-0.3125 -0.3125,-0.609375 -0.734375,-0.609375 -0.734375,0 -1.09375,0.671875 -1.21875,1.09375 z m 0,0"
           id="path225" /></g><g
         id="glyph-1-27"><path
           d="m 1.171875,-2.171875 c 0,-1.625 0.8125,-2.046875 1.34375,-2.046875 0.09375,0 0.71875,0.015625 1.0625,0.375 -0.40625,0.03125 -0.46875,0.328125 -0.46875,0.453125 0,0.265625 0.1875,0.453125 0.453125,0.453125 0.265625,0 0.46875,-0.15625 0.46875,-0.46875 0,-0.671875 -0.765625,-1.0625 -1.53125,-1.0625 -1.25,0 -2.15625,1.078125 -2.15625,2.3125 0,1.28125 0.984375,2.265625 2.140625,2.265625 1.328125,0 1.65625,-1.203125 1.65625,-1.296875 0,-0.09375 -0.109375,-0.09375 -0.140625,-0.09375 -0.078125,0 -0.109375,0.03125 -0.125,0.09375 -0.28125,0.921875 -0.9375,1.046875 -1.296875,1.046875 -0.53125,0 -1.40625,-0.421875 -1.40625,-2.03125 z m 0,0"
           id="path228" /></g><g
         id="glyph-1-28"><path
           d="M 4.140625,-3.3125 C 4.234375,-3.546875 4.40625,-3.984375 5.0625,-3.984375 v -0.3125 c -0.234375,0.015625 -0.515625,0.03125 -0.75,0.03125 -0.234375,0 -0.6875,-0.015625 -0.859375,-0.03125 v 0.3125 c 0.359375,0 0.46875,0.234375 0.46875,0.421875 0,0.09375 -0.015625,0.140625 -0.046875,0.25 L 2.84375,-0.78125 1.734375,-3.5625 c -0.0625,-0.125 -0.0625,-0.140625 -0.0625,-0.171875 0,-0.25 0.390625,-0.25 0.578125,-0.25 v -0.3125 c -0.3125,0.015625 -0.859375,0.03125 -1.09375,0.03125 -0.265625,0 -0.671875,-0.015625 -0.96875,-0.03125 v 0.3125 c 0.625,0 0.671875,0.0625 0.796875,0.359375 l 1.4375,3.546875 C 2.484375,0.0625 2.5,0.109375 2.625,0.109375 c 0.140625,0 0.171875,-0.09375 0.21875,-0.1875 z m 0,0"
           id="path231" /></g><g
         id="glyph-1-29"><path
           d="m 1.71875,-3.765625 v -3.15625 L 0.28125,-6.8125 V -6.5 c 0.703125,0 0.78125,0.0625 0.78125,0.5625 V 0 h 0.25 c 0,-0.015625 0.078125,-0.15625 0.359375,-0.625 0.140625,0.234375 0.5625,0.734375 1.296875,0.734375 1.1875,0 2.21875,-0.984375 2.21875,-2.265625 0,-1.265625 -0.96875,-2.25 -2.109375,-2.25 -0.78125,0 -1.203125,0.46875 -1.359375,0.640625 z m 0.03125,2.625 V -3.1875 c 0,-0.1875 0,-0.203125 0.109375,-0.359375 C 2.25,-4.109375 2.796875,-4.1875 3.03125,-4.1875 c 0.453125,0 0.8125,0.265625 1.046875,0.640625 0.265625,0.40625 0.28125,0.96875 0.28125,1.390625 0,0.359375 -0.015625,0.953125 -0.296875,1.40625 -0.21875,0.3125 -0.59375,0.640625 -1.125,0.640625 -0.453125,0 -0.8125,-0.234375 -1.046875,-0.609375 C 1.75,-0.921875 1.75,-0.953125 1.75,-1.140625 Z m 0,0"
           id="path234" /></g><g
         id="glyph-1-30"><path
           d="m 1.71875,-3.75 v -0.65625 l -1.4375,0.109375 v 0.3125 c 0.703125,0 0.78125,0.0625 0.78125,0.5 v 4.65625 C 1.0625,1.625 0.953125,1.625 0.28125,1.625 V 1.9375 C 0.625,1.921875 1.140625,1.90625 1.390625,1.90625 c 0.28125,0 0.78125,0.015625 1.125,0.03125 V 1.625 C 1.859375,1.625 1.75,1.625 1.75,1.171875 V -0.59375 c 0.046875,0.171875 0.46875,0.703125 1.21875,0.703125 1.1875,0 2.21875,-0.984375 2.21875,-2.265625 0,-1.265625 -0.953125,-2.25 -2.078125,-2.25 -0.78125,0 -1.203125,0.4375 -1.390625,0.65625 z M 1.75,-1.140625 v -2.21875 C 2.03125,-3.875 2.515625,-4.15625 3.03125,-4.15625 c 0.734375,0 1.328125,0.875 1.328125,2 0,1.203125 -0.6875,2.046875 -1.421875,2.046875 -0.40625,0 -0.78125,-0.203125 -1.046875,-0.609375 C 1.75,-0.921875 1.75,-0.9375 1.75,-1.140625 Z m 0,0"
           id="path237" /></g><g
         id="glyph-1-31"><path
           d="m 1.90625,-0.53125 c 0,-0.28125 -0.234375,-0.53125 -0.515625,-0.53125 -0.296875,0 -0.53125,0.25 -0.53125,0.53125 C 0.859375,-0.234375 1.09375,0 1.390625,0 1.671875,0 1.90625,-0.234375 1.90625,-0.53125 Z m 0,0"
           id="path240" /></g><g
         id="glyph-2-0" /><g
         id="glyph-2-1"><path
           d="m 1.90625,-0.53125 c 0,-0.28125 -0.234375,-0.53125 -0.515625,-0.53125 -0.296875,0 -0.53125,0.25 -0.53125,0.53125 C 0.859375,-0.234375 1.09375,0 1.390625,0 1.671875,0 1.90625,-0.234375 1.90625,-0.53125 Z m 0,0"
           id="path244" /></g><g
         id="glyph-2-2"><path
           d="m 2.9375,-3.71875 h 1.671875 c 0.125,0 0.484375,0 0.484375,-0.34375 0,-0.234375 -0.203125,-0.234375 -0.40625,-0.234375 H 1.90625 c -0.203125,0 -0.59375,0 -1.03125,0.46875 -0.328125,0.359375 -0.609375,0.84375 -0.609375,0.890625 0,0.015625 0,0.109375 0.125,0.109375 0.078125,0 0.09375,-0.046875 0.15625,-0.125 C 1.03125,-3.71875 1.609375,-3.71875 1.8125,-3.71875 h 0.828125 l -0.96875,3.203125 C 1.625,-0.40625 1.5625,-0.1875 1.5625,-0.15625 c 0,0.109375 0.078125,0.28125 0.296875,0.28125 0.328125,0 0.375,-0.28125 0.40625,-0.4375 z m 0,0"
           id="path247" /></g><g
         id="glyph-2-3"><path
           d="m 5.15625,-3.71875 c 0.140625,0 0.5,0 0.5,-0.34375 0,-0.234375 -0.21875,-0.234375 -0.390625,-0.234375 h -2.28125 c -1.5,0 -2.609375,1.640625 -2.609375,2.828125 0,0.875 0.59375,1.578125 1.5,1.578125 1.171875,0 2.5,-1.203125 2.5,-2.734375 0,-0.171875 0,-0.65625 -0.3125,-1.09375 z M 1.890625,-0.109375 C 1.390625,-0.109375 1,-0.46875 1,-1.1875 c 0,-0.296875 0.109375,-1.109375 0.46875,-1.703125 0.421875,-0.6875 1.015625,-0.828125 1.359375,-0.828125 0.828125,0 0.90625,0.65625 0.90625,0.96875 0,0.46875 -0.203125,1.28125 -0.53125,1.796875 -0.390625,0.578125 -0.9375,0.84375 -1.3125,0.84375 z m 0,0"
           id="path250" /></g></g><clipPath
       id="clip-0"><path
         clip-rule="nonzero"
         d="M 26,21 H 265.04297 V 148 H 26 Z m 0,0"
         id="path255" /></clipPath><clipPath
       id="clip-1"><path
         clip-rule="nonzero"
         d="M 29,27 H 262 V 146.92187 H 29 Z m 0,0"
         id="path258" /></clipPath><clipPath
       id="clip-2"><path
         clip-rule="nonzero"
         d="m 29,74 h 233 v 72.92187 H 29 Z m 0,0"
         id="path261" /></clipPath></defs><g
     inkscape:label="Layer 1"
     inkscape:groupmode="layer"
     id="layer1"
     transform="translate(-21.48587,-120.33333)"><g
       id="g776"
       transform="matrix(0.35277778,0,0,0.35277778,17.833694,119.20171)"><path
         fill="none"
         stroke-width="0.19925"
         stroke-linecap="butt"
         stroke-linejoin="miter"
         stroke="#7f7f7f"
         stroke-opacity="1"
         stroke-miterlimit="10"
         d="M -0.00134375,-0.001875 V 4.252031 M 33.143188,-0.001875 v 4.253906 m 33.144531,-4.253906 v 4.253906 m 33.140625,-4.253906 v 4.253906 m 33.144526,-4.253906 v 4.253906 m 33.14454,-4.253906 v 4.253906 m 33.14453,-4.253906 V 4.252031 M -0.00134375,125.24813 v -4.25391 m 33.14453175,4.25391 v -4.25391 m 33.144531,4.25391 v -4.25391 m 33.140625,4.25391 v -4.25391 m 33.144526,4.25391 v -4.25391 m 33.14454,4.25391 v -4.25391 m 33.14453,4.25391 v -4.25391"
         transform="matrix(1,0,0,-1,46.099,146.92)"
         id="path266" /><path
         fill="none"
         stroke-width="0.19925"
         stroke-linecap="butt"
         stroke-linejoin="miter"
         stroke="#7f7f7f"
         stroke-opacity="1"
         stroke-miterlimit="10"
         d="m -19.888062,9.279375 h 4.253906 m -4.253906,46.386719 h 4.253906 m -4.253906,46.386716 h 4.253906 M 218.74866,9.279375 h -4.25391 m 4.25391,46.386719 h -4.25391 m 4.25391,46.386716 h -4.25391"
         transform="matrix(1,0,0,-1,46.099,146.92)"
         id="path268" /><g
         clip-path="url(#clip-0)"
         id="g272"><path
           fill="none"
           stroke-width="0.3985"
           stroke-linecap="butt"
           stroke-linejoin="miter"
           stroke="#000000"
           stroke-opacity="1"
           stroke-miterlimit="10"
           d="M -19.888062,-0.001875 V 125.24813 H 218.74866 V -0.001875 Z m 0,0"
           transform="matrix(1,0,0,-1,46.099,146.92)"
           id="path270" /></g><g
         fill="#000000"
         fill-opacity="1"
         id="g276"><use
           xlink:href="#glyph-0-1"
           x="39.734001"
           y="156.86"
           id="use274" /></g><g
         fill="#000000"
         fill-opacity="1"
         id="g280"><use
           xlink:href="#glyph-1-1"
           x="47.48291"
           y="156.86"
           id="use278" /></g><g
         fill="#000000"
         fill-opacity="1"
         id="g284"><use
           xlink:href="#glyph-0-1"
           x="72.876999"
           y="156.86"
           id="use282" /></g><g
         fill="#000000"
         fill-opacity="1"
         id="g288"><use
           xlink:href="#glyph-1-2"
           x="80.625908"
           y="156.86"
           id="use286" /></g><g
         fill="#000000"
         fill-opacity="1"
         id="g292"><use
           xlink:href="#glyph-0-1"
           x="106.02"
           y="156.86"
           id="use290" /></g><g
         fill="#000000"
         fill-opacity="1"
         id="g296"><use
           xlink:href="#glyph-1-3"
           x="113.76891"
           y="156.86"
           id="use294" /></g><g
         fill="#000000"
         fill-opacity="1"
         id="g300"><use
           xlink:href="#glyph-1-4"
           x="143.037"
           y="156.86"
           id="use298" /></g><g
         fill="#000000"
         fill-opacity="1"
         id="g304"><use
           xlink:href="#glyph-1-3"
           x="176.17999"
           y="156.86"
           id="use302" /></g><g
         fill="#000000"
         fill-opacity="1"
         id="g308"><use
           xlink:href="#glyph-1-2"
           x="209.323"
           y="156.86"
           id="use306" /></g><g
         fill="#000000"
         fill-opacity="1"
         id="g312"><use
           xlink:href="#glyph-1-1"
           x="242.466"
           y="156.86"
           id="use310" /></g><g
         fill="#000000"
         fill-opacity="1"
         id="g316"><use
           xlink:href="#glyph-1-4"
           x="17.711"
           y="140.853"
           id="use314" /></g><g
         fill="#000000"
         fill-opacity="1"
         id="g320"><use
           xlink:href="#glyph-1-4"
           x="9.9619999"
           y="94.464996"
           id="use318" /></g><g
         fill="#000000"
         fill-opacity="1"
         id="g324"><use
           xlink:href="#glyph-2-1"
           x="14.9433"
           y="94.464996"
           id="use322" /></g><g
         fill="#000000"
         fill-opacity="1"
         id="g328"><use
           xlink:href="#glyph-1-5"
           x="17.710911"
           y="94.464996"
           id="use326" /></g><g
         fill="#000000"
         fill-opacity="1"
         id="g332"><use
           xlink:href="#glyph-1-6"
           x="17.711"
           y="48.077999"
           id="use330" /></g><g
         clip-path="url(#clip-1)"
         id="g336"><path
           fill="none"
           stroke-width="1.19553"
           stroke-linecap="butt"
           stroke-linejoin="miter"
           stroke="#0066cc"
           stroke-opacity="1"
           stroke-miterlimit="10"
           d="m -0.00134375,9.279375 c 0,0 1.43749975,0 1.98828175,0 0.554687,0 1.4375,0 1.992187,0 0.550781,0 1.433594,0 1.988281,0 0.550782,0 1.433594,0 1.988282,0 0.550781,0 1.433593,0 1.988281,0 0.550781,0 1.4375,0 1.988281,0 0.550781,0 1.4375,0 1.988281,0 0.550782,0 1.4375,0 1.988282,0 0.550781,0 1.4375,0 1.988281,0 0.550781,0 1.4375,0 1.988281,0 0.550781,0 1.4375,0 1.988281,0 0.554688,0 1.4375,0 1.988282,0 0.554687,0 1.4375,0.00391 1.988281,0.00391 0.554687,0 1.4375,0 1.988281,0.00391 0.554688,0 1.4375,0.00391 1.992188,0.00391 0.550781,0.00391 1.433593,0.00781 1.988281,0.00781 0.550781,0.00391 1.433594,0.011719 1.988281,0.015625 0.550781,0.00391 1.4375,0.011719 1.988281,0.019531 0.550782,0.00781 1.4375,0.023438 1.988282,0.035157 0.550781,0.011718 1.4375,0.035156 1.988281,0.050781 0.550781,0.015625 1.4375,0.050781 1.988281,0.074219 0.550781,0.027343 1.4375,0.074218 1.988281,0.113281 0.550782,0.035156 1.4375,0.105469 1.988282,0.15625 0.550781,0.054687 1.4375,0.152344 1.988281,0.226562 0.554687,0.078125 1.4375,0.214844 1.988281,0.316407 0.554688,0.105468 1.4375,0.296875 1.988281,0.4375 0.554688,0.140625 1.4375,0.398437 1.992188,0.589843 0.550781,0.191407 1.433594,0.535157 1.988281,0.789063 0.550781,0.25 1.433594,0.703125 1.988281,1.03125 0.550782,0.328125 1.4375,0.910156 1.988282,1.332031 0.550781,0.417969 1.4375,1.160156 1.988281,1.6875 0.550781,0.527344 1.4375,1.457031 1.988281,2.105469 0.550781,0.648437 1.4375,1.789062 1.988281,2.578125 0.550782,0.789062 1.4375,2.167969 1.988282,3.109375 0.550781,0.941406 1.4375,2.574219 1.988281,3.675781 0.550781,1.101563 1.4375,2.992188 1.988281,4.257813 0.554688,1.265625 1.4375,3.425781 1.988281,4.855468 0.554688,1.425782 1.4375,3.851563 1.988282,5.425782 0.554687,1.578125 1.4375,4.222656 1.992187,5.921875 0.550781,1.699218 1.433594,4.539062 1.988281,6.339843 0.550782,1.796875 1.433594,4.769532 1.988282,6.625 0.550781,1.851563 1.4375,4.875 1.988281,6.734375 0.550781,1.863282 1.4375,4.871094 1.988281,6.683594 0.550781,1.816406 1.4375,4.6875 1.988281,6.394531 0.550782,1.707032 1.4375,4.371094 1.988282,5.910157 0.550781,1.539062 1.4375,3.875 1.988281,5.1875 0.550781,1.3125 1.4375,3.234375 1.988281,4.269531 0.550781,1.035156 1.4375,2.476562 1.988281,3.191406 0.554688,0.71485 1.4375,1.60547 1.988282,1.96875 0.554687,0.36328 1.4375,0.64453 1.988281,0.64453 0.554687,0 1.437496,-0.28125 1.992186,-0.64453 0.55078,-0.36328 1.43359,-1.2539 1.98828,-1.96875 0.55078,-0.714844 1.4336,-2.15625 1.98828,-3.191406 0.55078,-1.035156 1.4336,-2.957031 1.98828,-4.269531 0.55079,-1.3125 1.4375,-3.648438 1.98829,-5.1875 0.55078,-1.539063 1.4375,-4.203125 1.98828,-5.910157 0.55078,-1.707031 1.4375,-4.578125 1.98828,-6.394531 0.55078,-1.8125 1.4375,-4.820312 1.98828,-6.683594 0.55078,-1.859375 1.4375,-4.882812 1.98828,-6.734375 0.55078,-1.855468 1.4375,-4.828125 1.98828,-6.625 0.55469,-1.800781 1.4375,-4.640625 1.98828,-6.339843 0.55469,-1.699219 1.4375,-4.34375 1.98828,-5.921875 0.55469,-1.574219 1.4375,-4 1.99219,-5.425782 0.55078,-1.429687 1.4336,-3.589843 1.98828,-4.855468 0.55078,-1.265625 1.4336,-3.15625 1.98828,-4.257813 0.55079,-1.101562 1.4336,-2.734375 1.98829,-3.675781 0.55078,-0.941406 1.4375,-2.320313 1.98828,-3.109375 0.55078,-0.789063 1.4375,-1.929688 1.98828,-2.578125 0.55078,-0.648438 1.4375,-1.578125 1.98828,-2.105469 0.55078,-0.527344 1.4375,-1.269531 1.98828,-1.6875 0.55078,-0.421875 1.4375,-1.003906 1.98828,-1.332031 0.55078,-0.328125 1.4375,-0.78125 1.98828,-1.03125 0.55469,-0.253906 1.4375,-0.597656 1.98828,-0.789063 0.55469,-0.191406 1.4375,-0.449218 1.98829,-0.589843 0.55468,-0.140625 1.4375,-0.332032 1.98828,-0.4375 0.55468,-0.101563 1.4375,-0.238282 1.99218,-0.316407 0.55079,-0.074218 1.4336,-0.171875 1.98829,-0.226562 0.55078,-0.050781 1.43359,-0.121094 1.98828,-0.15625 0.55078,-0.039063 1.4375,-0.085938 1.98828,-0.113281 0.55078,-0.023438 1.4375,-0.058594 1.98828,-0.074219 0.55078,-0.015625 1.4375,-0.039063 1.98828,-0.050781 0.55078,-0.011719 1.4375,-0.027344 1.98828,-0.035157 0.55078,-0.00781 1.4375,-0.015625 1.98828,-0.019531 0.55078,-0.00391 1.4375,-0.011719 1.98828,-0.015625 0.55079,0 1.4375,-0.00391 1.98829,-0.00781 0.55468,0 1.4375,-0.00391 1.98828,-0.00391 0.55468,-0.00391 1.4375,-0.00391 1.98828,-0.00391 0.55469,0 1.4375,-0.00391 1.99219,-0.00391 0.55078,0 1.43359,0 1.98828,0 0.55078,0 1.43359,0 1.98828,0 0.55078,0 1.4375,0 1.98828,0 0.55078,0 1.4375,0 1.98828,0 0.55078,0 1.4375,0 1.98828,0 0.55078,0 1.4375,0 1.98828,0 0.55078,0 1.4375,0 1.98828,0 0.55079,0 1.4375,0 1.98829,0 0.55078,0 1.4375,0 1.98828,0 0.55468,0 1.4375,0 1.98828,0 0.55469,0 1.4375,0 1.98828,0 0.55469,0 1.99219,0 1.99219,0"
           transform="matrix(1,0,0,-1,46.099,146.92)"
           id="path334" /></g><g
         clip-path="url(#clip-2)"
         id="g340"><path
           fill="none"
           stroke-width="1.19553"
           stroke-linecap="butt"
           stroke-linejoin="miter"
           stroke="#ff7f00"
           stroke-opacity="1"
           stroke-dasharray="2.98883, 2.98883"
           stroke-miterlimit="10"
           d="m -0.00134375,55.666094 c 0,0 1.43749975,0 1.98828175,0 0.554687,0 1.4375,0 1.992187,0 0.550781,0 1.433594,0 1.988281,0 0.550782,0 1.433594,0 1.988282,0 0.550781,0 1.433593,0 1.988281,0 0.550781,0 1.4375,0 1.988281,0 0.550781,0 1.4375,0 1.988281,0 0.550782,0 1.4375,0 1.988282,0 0.550781,0 1.4375,0 1.988281,0 0.550781,0 1.4375,0 1.988281,0 0.550781,0 1.4375,0 1.988281,0 0.554688,0 1.4375,0 1.988282,0 0.554687,-0.0039 1.4375,-0.0039 1.988281,-0.0039 0.554687,0 1.4375,0 1.988281,0 0.554688,0 1.4375,-0.0039 1.992188,-0.0039 0.550781,0 1.433593,-0.0039 1.988281,-0.0039 0.550781,0 1.433594,-0.0039 1.988281,-0.0078 0.550781,0 1.4375,-0.0078 1.988281,-0.01172 0.550782,-0.0039 1.4375,-0.0078 1.988282,-0.01563 0.550781,-0.0039 1.4375,-0.01563 1.988281,-0.02344 0.550781,-0.01172 1.4375,-0.02734 1.988281,-0.03906 0.550781,-0.01172 1.4375,-0.03516 1.988281,-0.05469 0.550782,-0.01953 1.4375,-0.05469 1.988282,-0.08203 0.550781,-0.02344 1.4375,-0.07422 1.988281,-0.109375 0.554687,-0.03906 1.4375,-0.109375 1.988281,-0.160156 0.554688,-0.05078 1.4375,-0.148438 1.988281,-0.21875 0.554688,-0.07031 1.4375,-0.199219 1.992188,-0.292969 0.550781,-0.09766 1.433594,-0.269531 1.988281,-0.394531 0.550781,-0.128907 1.433594,-0.351563 1.988281,-0.515625 0.550782,-0.164063 1.4375,-0.457032 1.988282,-0.667969 0.550781,-0.207031 1.4375,-0.578125 1.988281,-0.84375 0.550781,-0.261719 1.4375,-0.726563 1.988281,-1.050781 0.550781,-0.324219 1.4375,-0.894532 1.988281,-1.289063 0.550782,-0.394531 1.4375,-1.085937 1.988282,-1.554687 0.550781,-0.472657 1.4375,-1.289063 1.988281,-1.839844 0.550781,-0.550781 1.4375,-1.496094 1.988281,-2.128906 0.554688,-0.632813 1.4375,-1.714844 1.988281,-2.425782 0.554688,-0.714843 1.4375,-1.925781 1.988282,-2.714843 0.554687,-0.789063 1.4375,-2.109375 1.992187,-2.960938 0.550781,-0.851562 1.433594,-2.269531 1.988281,-3.167969 0.550782,-0.902343 1.433594,-2.386718 1.988282,-3.3125 0.550781,-0.929687 1.4375,-2.4375 1.988281,-3.371093 0.550781,-0.929688 1.4375,-2.433594 1.988281,-3.339844 0.550781,-0.90625 1.4375,-2.34375 1.988281,-3.195313 0.550782,-0.855468 1.4375,-2.1875 1.988282,-2.957031 0.550781,-0.769531 1.4375,-1.9375 1.988281,-2.59375 0.550781,-0.65625 1.4375,-1.617187 1.988281,-2.132812 0.550781,-0.519532 1.4375,-1.238282 1.988281,-1.597657 0.554688,-0.359375 1.4375,-0.800781 1.988282,-0.984375 0.554687,-0.179687 1.4375,-0.320312 1.988281,-0.320312 0.554687,0 1.437496,0.140625 1.992186,0.320312 0.55078,0.183594 1.43359,0.625 1.98828,0.984375 0.55078,0.359375 1.4336,1.078125 1.98828,1.597657 0.55078,0.515625 1.4336,1.476562 1.98828,2.132812 0.55079,0.65625 1.4375,1.824219 1.98829,2.59375 0.55078,0.769531 1.4375,2.101563 1.98828,2.957031 0.55078,0.851563 1.4375,2.289063 1.98828,3.195313 0.55078,0.90625 1.4375,2.410156 1.98828,3.339844 0.55078,0.933593 1.4375,2.441406 1.98828,3.371093 0.55078,0.925782 1.4375,2.410157 1.98828,3.3125 0.55469,0.898438 1.4375,2.316407 1.98828,3.167969 0.55469,0.851563 1.4375,2.171875 1.98828,2.960938 0.55469,0.789062 1.4375,2 1.99219,2.714843 0.55078,0.710938 1.4336,1.792969 1.98828,2.425782 0.55078,0.632812 1.4336,1.578125 1.98828,2.128906 0.55079,0.550781 1.4336,1.367187 1.98829,1.839844 0.55078,0.46875 1.4375,1.160156 1.98828,1.554687 0.55078,0.394531 1.4375,0.964844 1.98828,1.289063 0.55078,0.324218 1.4375,0.789062 1.98828,1.050781 0.55078,0.265625 1.4375,0.636719 1.98828,0.84375 0.55078,0.210937 1.4375,0.503906 1.98828,0.667969 0.55078,0.164062 1.4375,0.386718 1.98828,0.515625 0.55469,0.125 1.4375,0.296875 1.98828,0.394531 0.55469,0.09375 1.4375,0.222656 1.98829,0.292969 0.55468,0.07031 1.4375,0.167968 1.98828,0.21875 0.55468,0.05078 1.4375,0.121093 1.99218,0.160156 0.55079,0.03516 1.4336,0.08594 1.98829,0.109375 0.55078,0.02734 1.43359,0.0625 1.98828,0.08203 0.55078,0.01953 1.4375,0.04297 1.98828,0.05469 0.55078,0.01172 1.4375,0.02734 1.98828,0.03906 0.55078,0.0078 1.4375,0.01953 1.98828,0.02344 0.55078,0.0078 1.4375,0.01172 1.98828,0.01563 0.55078,0.0039 1.4375,0.01172 1.98828,0.01172 0.55078,0.0039 1.4375,0.0078 1.98828,0.0078 0.55079,0 1.4375,0.0039 1.98829,0.0039 0.55468,0 1.4375,0.0039 1.98828,0.0039 0.55468,0 1.4375,0 1.98828,0 0.55469,0 1.4375,0 1.99219,0.0039 0.55078,0 1.43359,0 1.98828,0 0.55078,0 1.43359,0 1.98828,0 0.55078,0 1.4375,0 1.98828,0 0.55078,0 1.4375,0 1.98828,0 0.55078,0 1.4375,0 1.98828,0 0.55078,0 1.4375,0 1.98828,0 0.55078,0 1.4375,0 1.98828,0 0.55079,0 1.4375,0 1.98829,0 0.55078,0 1.4375,0 1.98828,0 0.55468,0 1.4375,0 1.98828,0 0.55469,0 1.4375,0 1.98828,0 0.55469,0 1.99219,0 1.99219,0"
           transform="matrix(1,0,0,-1,46.099,146.92)"
           id="path338" /></g><g
         fill="#000000"
         fill-opacity="1"
         id="g350"><use
           xlink:href="#glyph-1-7"
           x="91.166"
           y="172.00301"
           id="use342" /><use
           xlink:href="#glyph-1-8"
           x="98.360992"
           y="172.00301"
           id="use344" /><use
           xlink:href="#glyph-1-9"
           x="101.1286"
           y="172.00301"
           id="use346" /><use
           xlink:href="#glyph-1-10"
           x="109.43044"
           y="172.00301"
           id="use348" /></g><g
         fill="#000000"
         fill-opacity="1"
         id="g360"><use
           xlink:href="#glyph-1-11"
           x="117.17536"
           y="172.00301"
           id="use352" /><use
           xlink:href="#glyph-1-10"
           x="122.71058"
           y="172.00301"
           id="use354" /><use
           xlink:href="#glyph-1-12"
           x="127.13796"
           y="172.00301"
           id="use356" /><use
           xlink:href="#glyph-1-13"
           x="129.90556"
           y="172.00301"
           id="use358" /></g><g
         fill="#000000"
         fill-opacity="1"
         id="g364"><use
           xlink:href="#glyph-1-14"
           x="134.61787"
           y="172.00301"
           id="use362" /></g><g
         fill="#000000"
         fill-opacity="1"
         id="g368"><use
           xlink:href="#glyph-2-2"
           x="143.19368"
           y="172.00301"
           id="use366" /></g><g
         fill="#000000"
         fill-opacity="1"
         id="g382"><use
           xlink:href="#glyph-1-15"
           x="151.99266"
           y="172.00301"
           id="use370" /><use
           xlink:href="#glyph-1-16"
           x="154.76027"
           y="172.00301"
           id="use372" /><use
           xlink:href="#glyph-1-17"
           x="160.29549"
           y="172.00301"
           id="use374" /><use
           xlink:href="#glyph-1-8"
           x="165.8307"
           y="172.00301"
           id="use376" /><use
           xlink:href="#glyph-1-18"
           x="168.59831"
           y="172.00301"
           id="use378" /><use
           xlink:href="#glyph-1-19"
           x="172.47278"
           y="172.00301"
           id="use380" /></g><g
         fill="#000000"
         fill-opacity="1"
         id="g388"><use
           xlink:href="#glyph-1-20"
           x="179.72952"
           y="172.00301"
           id="use384" /><use
           xlink:href="#glyph-1-21"
           x="184.71083"
           y="172.00301"
           id="use386" /></g><g
         fill="#000000"
         fill-opacity="1"
         id="g392"><use
           xlink:href="#glyph-2-3"
           x="191.07295"
           y="172.00301"
           id="use390" /></g><g
         fill="#000000"
         fill-opacity="1"
         id="g396"><use
           xlink:href="#glyph-1-22"
           x="197.12422"
           y="172.00301"
           id="use394" /></g><g
         fill="#000000"
         fill-opacity="1"
         id="g404"><use
           xlink:href="#glyph-1-23"
           x="58.839001"
           y="10.239"
           id="use398" /><use
           xlink:href="#glyph-1-24"
           x="66.310951"
           y="10.239"
           id="use400" /><use
           xlink:href="#glyph-1-25"
           x="74.05986"
           y="10.239"
           id="use402" /></g><g
         fill="#000000"
         fill-opacity="1"
         id="g410"><use
           xlink:href="#glyph-1-8"
           x="86.510124"
           y="10.239"
           id="use406" /><use
           xlink:href="#glyph-1-17"
           x="89.277733"
           y="10.239"
           id="use408" /></g><g
         fill="#000000"
         fill-opacity="1"
         id="g432"><use
           xlink:href="#glyph-1-18"
           x="94.533997"
           y="10.239"
           id="use412" /><use
           xlink:href="#glyph-1-10"
           x="98.408455"
           y="10.239"
           id="use414" /><use
           xlink:href="#glyph-1-26"
           x="102.83583"
           y="10.239"
           id="use416" /><use
           xlink:href="#glyph-1-21"
           x="106.73818"
           y="10.239"
           id="use418" /><use
           xlink:href="#glyph-1-10"
           x="109.78275"
           y="10.239"
           id="use420" /><use
           xlink:href="#glyph-1-26"
           x="114.21014"
           y="10.239"
           id="use422" /><use
           xlink:href="#glyph-1-10"
           x="118.11249"
           y="10.239"
           id="use424" /><use
           xlink:href="#glyph-1-17"
           x="122.53986"
           y="10.239"
           id="use426" /><use
           xlink:href="#glyph-1-27"
           x="128.07509"
           y="10.239"
           id="use428" /><use
           xlink:href="#glyph-1-10"
           x="132.50246"
           y="10.239"
           id="use430" /></g><g
         fill="#000000"
         fill-opacity="1"
         id="g440"><use
           xlink:href="#glyph-1-21"
           x="140.25735"
           y="10.239"
           id="use434" /><use
           xlink:href="#glyph-1-20"
           x="143.30193"
           y="10.239"
           id="use436" /><use
           xlink:href="#glyph-1-26"
           x="148.28322"
           y="10.239"
           id="use438" /></g><g
         fill="#000000"
         fill-opacity="1"
         id="g452"><use
           xlink:href="#glyph-1-13"
           x="155.50311"
           y="10.239"
           id="use442" /><use
           xlink:href="#glyph-1-26"
           x="160.48442"
           y="10.239"
           id="use444" /><use
           xlink:href="#glyph-1-26"
           x="164.38676"
           y="10.239"
           id="use446" /><use
           xlink:href="#glyph-1-8"
           x="168.28912"
           y="10.239"
           id="use448" /><use
           xlink:href="#glyph-1-28"
           x="171.05673"
           y="10.239"
           id="use450" /></g><g
         fill="#000000"
         fill-opacity="1"
         id="g458"><use
           xlink:href="#glyph-1-13"
           x="175.75708"
           y="10.239"
           id="use454" /><use
           xlink:href="#glyph-1-12"
           x="180.73839"
           y="10.239"
           id="use456" /></g><g
         fill="#000000"
         fill-opacity="1"
         id="g468"><use
           xlink:href="#glyph-1-18"
           x="186.83351"
           y="10.239"
           id="use460" /><use
           xlink:href="#glyph-1-8"
           x="190.70796"
           y="10.239"
           id="use462" /><use
           xlink:href="#glyph-1-9"
           x="193.47557"
           y="10.239"
           id="use464" /><use
           xlink:href="#glyph-1-10"
           x="201.7774"
           y="10.239"
           id="use466" /></g><g
         fill="#000000"
         fill-opacity="1"
         id="g478"><use
           xlink:href="#glyph-1-11"
           x="209.52232"
           y="10.239"
           id="use470" /><use
           xlink:href="#glyph-1-10"
           x="215.05756"
           y="10.239"
           id="use472" /><use
           xlink:href="#glyph-1-12"
           x="219.48492"
           y="10.239"
           id="use474" /><use
           xlink:href="#glyph-1-13"
           x="222.25253"
           y="10.239"
           id="use476" /></g><g
         fill="#000000"
         fill-opacity="1"
         id="g482"><use
           xlink:href="#glyph-1-14"
           x="226.95488"
           y="10.239"
           id="use480" /></g><path
         fill-rule="nonzero"
         fill="#ffffff"
         fill-opacity="1"
         stroke-width="0.3985"
         stroke-linecap="butt"
         stroke-linejoin="miter"
         stroke="#000000"
         stroke-opacity="1"
         stroke-miterlimit="10"
         d="m 36.526,106.15828 h 177.25 v 16.38281 H 36.526 Z m 0,0"
         transform="matrix(1,0,0,-1,46.099,146.92)"
         id="path484" /><path
         fill="none"
         stroke-width="1.19553"
         stroke-linecap="butt"
         stroke-linejoin="miter"
         stroke="#0066cc"
         stroke-opacity="1"
         stroke-miterlimit="10"
         d="m 0.00184375,-3.125e-4 c 0,0 6.14062525,0 8.50390625,0 2.359375,0 8.503906,0 8.503906,0"
         transform="matrix(1,0,0,-1,86.213,32.57)"
         id="path486" /><g
         fill="#000000"
         fill-opacity="1"
         id="g506"><use
           xlink:href="#glyph-1-28"
           x="105.811"
           y="35.282001"
           id="use488" /><use
           xlink:href="#glyph-1-8"
           x="111.06926"
           y="35.282001"
           id="use490" /><use
           xlink:href="#glyph-1-19"
           x="113.83687"
           y="35.282001"
           id="use492" /><use
           xlink:href="#glyph-1-8"
           x="117.76612"
           y="35.282001"
           id="use494" /><use
           xlink:href="#glyph-1-29"
           x="120.53373"
           y="35.282001"
           id="use496" /><use
           xlink:href="#glyph-1-8"
           x="126.06895"
           y="35.282001"
           id="use498" /><use
           xlink:href="#glyph-1-12"
           x="128.83656"
           y="35.282001"
           id="use500" /><use
           xlink:href="#glyph-1-8"
           x="131.60417"
           y="35.282001"
           id="use502" /><use
           xlink:href="#glyph-1-18"
           x="134.37178"
           y="35.282001"
           id="use504" /></g><g
         fill="#000000"
         fill-opacity="1"
         id="g510"><use
           xlink:href="#glyph-1-14"
           x="137.96729"
           y="35.282001"
           id="use508" /></g><path
         fill="none"
         stroke-width="1.19553"
         stroke-linecap="butt"
         stroke-linejoin="miter"
         stroke="#ff7f00"
         stroke-opacity="1"
         stroke-dasharray="2.98883, 2.98883"
         stroke-miterlimit="10"
         d="m -0.00171875,-3.125e-4 c 0,0 6.14453175,0 8.50390675,0 2.363281,0 8.507812,0 8.507812,0"
         transform="matrix(1,0,0,-1,159.99,32.57)"
         id="path512" /><g
         fill="#000000"
         fill-opacity="1"
         id="g536"><use
           xlink:href="#glyph-1-27"
           x="179.588"
           y="35.282001"
           id="use514" /><use
           xlink:href="#glyph-1-20"
           x="184.01538"
           y="35.282001"
           id="use516" /><use
           xlink:href="#glyph-1-8"
           x="188.99667"
           y="35.282001"
           id="use518" /><use
           xlink:href="#glyph-1-17"
           x="191.7643"
           y="35.282001"
           id="use520" /><use
           xlink:href="#glyph-1-27"
           x="197.29951"
           y="35.282001"
           id="use522" /><use
           xlink:href="#glyph-1-8"
           x="201.72688"
           y="35.282001"
           id="use524" /><use
           xlink:href="#glyph-1-11"
           x="204.49451"
           y="35.282001"
           id="use526" /><use
           xlink:href="#glyph-1-10"
           x="210.02972"
           y="35.282001"
           id="use528" /><use
           xlink:href="#glyph-1-17"
           x="214.45711"
           y="35.282001"
           id="use530" /><use
           xlink:href="#glyph-1-27"
           x="219.99232"
           y="35.282001"
           id="use532" /><use
           xlink:href="#glyph-1-10"
           x="224.41969"
           y="35.282001"
           id="use534" /></g><g
         fill="#000000"
         fill-opacity="1"
         id="g548"><use
           xlink:href="#glyph-1-30"
           x="232.16463"
           y="35.282001"
           id="use538" /><use
           xlink:href="#glyph-1-26"
           x="237.69984"
           y="35.282001"
           id="use540" /><use
           xlink:href="#glyph-1-20"
           x="241.6022"
           y="35.282001"
           id="use542" /><use
           xlink:href="#glyph-1-29"
           x="246.5835"
           y="35.282001"
           id="use544" /><use
           xlink:href="#glyph-1-31"
           x="252.11871"
           y="35.282001"
           id="use546" /></g></g></g></svg>
